<svg xmlns="http://www.w3.org/2000/svg" width="64" height="64" viewBox="0 0 64 64" role="img" aria-label="Firefox">
  <defs>
    <radialGradient id="bg" cx="35%" cy="30%" r="70%">
      <stop offset="0%" stop-color="#a78bfa" />
      <stop offset="55%" stop-color="#7c3aed" />
      <stop offset="100%" stop-color="#312e81" />
    </radialGradient>
    <linearGradient id="flame" x1="0" y1="0" x2="1" y2="1">
      <stop offset="0%" stop-color="#fb7185" />
      <stop offset="45%" stop-color="#f97316" />
      <stop offset="100%" stop-color="#fbbf24" />
    </linearGradient>
  </defs>

  <circle cx="32" cy="32" r="30" fill="url(#bg)" />
  <circle cx="32" cy="32" r="30" fill="none" stroke="rgba(17,24,39,0.12)" stroke-width="2" />

  <!-- abstract fox/flame swoosh (stylized, not a literal logo) -->
  <path
    d="M46 18c-7-3-14 2-16 8-4-2-9-1-12 2-5 5-4 14 2 19 6 6 16 6 22 0 6-6 6-15 4-19z"
    fill="url(#flame)"
    opacity="0.95"
  />
  <path
    d="M44 24c-4-2-9 1-10 6-3-2-7-1-9 1-3 3-3 9 1 13 4 4 11 4 15 0 4-4 5-10 3-20z"
    fill="rgba(255,255,255,0.16)"
  />
</svg>

